<svg width="112" height="30" viewBox="0 0 112 30" fill="none" xmlns="http://www.w3.org/2000/svg">
<g clip-path="url(#clip0_6378_15639)">
<path d="M0 0H4.02022V14.0659L10.5885 7.03297H15.6845L7.87058 14.9451L15.9676 23.1319H10.7583L3.9636 15.8791V23.1319H0V0Z" fill="#0C0C0C"/>
<path d="M15.7411 15.2747C15.7411 10.1648 19.4216 6.64835 24.6875 6.64835C29.8968 6.64835 33.5207 10.0549 33.5207 15.2747V23.1868H29.8402V20C28.821 22.3626 26.5561 23.5714 23.9514 23.5714C19.9312 23.5714 15.7411 20.7692 15.7411 15.2747ZM29.5571 15.1099C29.5571 12.2527 27.6319 10.2747 24.6875 10.2747C21.7431 10.2747 19.7613 12.3077 19.7613 15.1099C19.7613 17.967 21.7431 19.945 24.6875 19.945C27.6319 19.945 29.5571 17.9121 29.5571 15.1099Z" fill="#0C0C0C"/>
<path d="M36.5784 13.9561C36.5784 8.90111 39.5794 6.64836 43.543 6.64836C46.0344 6.64836 48.0728 7.63737 49.2619 9.56045C50.3944 7.63737 52.4894 6.59341 54.9808 6.59341C58.8878 6.59341 61.9454 8.90111 61.9454 13.9011V23.0769H57.9252V13.9561C57.9252 11.3187 56.5096 10.2198 54.5845 10.2198C52.6593 10.2198 51.2437 11.3187 51.2437 13.9561V23.1319H47.2235V13.9561C47.2235 11.3736 45.8079 10.2198 43.8827 10.2198C41.9576 10.2198 40.542 11.3187 40.542 13.9561V23.1319H36.5218V13.9561H36.5784Z" fill="#0C0C0C"/>
<path d="M65.0031 15.2198C65.0031 10 68.6269 6.59341 73.8363 6.59341C79.1022 6.59341 82.7827 10.1099 82.7827 15.2198C82.7827 20.7143 78.536 23.5165 74.5157 23.5165C72.1376 23.5165 70.1558 22.5275 68.9667 20.7692V30H64.9465V15.2198H65.0031ZM78.7624 15.1099C78.7624 12.2528 76.7806 10.2747 73.8363 10.2747C70.8919 10.2747 68.9667 12.3077 68.9667 15.1099C68.9667 17.967 70.8919 19.9451 73.8363 19.9451C76.7806 19.9451 78.7624 17.9121 78.7624 15.1099Z" fill="#0C0C0C"/>
<path d="M84.4246 14.9451C84.4246 9.45055 88.6713 6.64835 92.6916 6.64835C95.0697 6.64835 97.0515 7.63736 98.2406 9.39561V0H102.261V14.9451C102.261 20.1648 98.637 23.5714 93.4277 23.5714C88.1617 23.5714 84.4246 20.0549 84.4246 14.9451ZM98.2406 15.1099C98.2406 12.2527 96.3154 10.2747 93.371 10.2747C90.4266 10.2747 88.4448 12.3077 88.4448 15.1099C88.4448 17.967 90.4266 19.9451 93.371 19.9451C96.3154 19.9451 98.2406 17.9121 98.2406 15.1099Z" fill="#0C0C0C"/>
<path d="M104.752 20.2197C104.752 18.2417 106.338 16.7032 108.376 16.7032C110.414 16.7032 112 18.2417 112 20.2197C112 22.1977 110.414 23.7362 108.376 23.7362C106.338 23.7362 104.752 22.1977 104.752 20.2197Z" fill="#EC1E24"/>
</g>
<defs>
<clipPath id="clip0_6378_15639">
<rect width="112" height="30" fill="white"/>
</clipPath>
</defs>
</svg>
